<svg id="Layer_1" data-name="Layer 1" xmlns="http://www.w3.org/2000/svg" viewBox="0 0 500 500"><defs><style>.cls-1,.cls-3{fill:#0678c1;}.cls-2{fill:none;stroke:#0678c1;stroke-width:11px;}.cls-2,.cls-3{stroke-miterlimit:10;}.cls-3{stroke:#fff;stroke-width:7px;}</style></defs><title>Job ICons</title><path class="cls-1" d="M250,495A245,245,0,0,1,76.76,76.76,245,245,0,1,1,423.24,423.24,243.37,243.37,0,0,1,250,495Zm0-480C120.42,15,15,120.42,15,250S120.42,485,250,485,485,379.58,485,250,379.58,15,250,15Z"/><path class="cls-1" d="M260.09,415.49H239.32A30.51,30.51,0,0,1,208.85,385v-7a133.67,133.67,0,0,1-20.75-8.61l-5,5a30.47,30.47,0,0,1-43.09,0l-14.69-14.68a30.48,30.48,0,0,1,0-43.1l5-5a132.91,132.91,0,0,1-8.62-20.75h-7a30.5,30.5,0,0,1-30.47-30.46V239.61a30.5,30.5,0,0,1,30.47-30.46h7a132.91,132.91,0,0,1,8.62-20.75l-5-5a30.47,30.47,0,0,1,0-43.1L140,125.64a30.47,30.47,0,0,1,43.1,0l5,5A133.67,133.67,0,0,1,208.85,122v-7a30.51,30.51,0,0,1,30.47-30.47h20.77A30.51,30.51,0,0,1,290.56,115v7a133.67,133.67,0,0,1,20.75,8.61l5-5a30.48,30.48,0,0,1,43.1,0l14.67,14.68a30.46,30.46,0,0,1,0,43.1l-5,5a132.86,132.86,0,0,1,8.61,20.75h7a30.49,30.49,0,0,1,30.47,30.46v20.78a30.49,30.49,0,0,1-30.47,30.46h-7a132.86,132.86,0,0,1-8.61,20.75l5,5a30.47,30.47,0,0,1,0,43.1l-14.68,14.68a30.46,30.46,0,0,1-43.09,0l-5-5A134.7,134.7,0,0,1,290.56,378v7a30.51,30.51,0,0,1-30.47,30.47ZM191.34,349A114.37,114.37,0,0,0,221,361.31a9.71,9.71,0,0,1,7.28,9.39V385a11.08,11.08,0,0,0,11.07,11.08h20.77A11.09,11.09,0,0,0,271.17,385V370.7a9.7,9.7,0,0,1,7.27-9.39A114.37,114.37,0,0,0,308.07,349a9.68,9.68,0,0,1,11.79,1.48L330,360.65a11.06,11.06,0,0,0,15.66,0L360.35,346a11.07,11.07,0,0,0,0-15.66l-10.15-10.14a9.71,9.71,0,0,1-1.49-11.8A114.13,114.13,0,0,0,361,278.74a9.7,9.7,0,0,1,9.39-7.28h14.31a11.09,11.09,0,0,0,11.08-11.07V239.61a11.09,11.09,0,0,0-11.08-11.07H370.41a9.7,9.7,0,0,1-9.39-7.27,114.05,114.05,0,0,0-12.3-29.63,9.7,9.7,0,0,1,1.49-11.79l10.14-10.15a11.07,11.07,0,0,0,0-15.66l-14.69-14.69a11.07,11.07,0,0,0-15.66,0L319.86,149.5A9.7,9.7,0,0,1,308.07,151a114.05,114.05,0,0,0-29.63-12.3,9.7,9.7,0,0,1-7.27-9.39V115a11.09,11.09,0,0,0-11.08-11.08H239.32A11.08,11.08,0,0,0,228.25,115V129.3a9.71,9.71,0,0,1-7.28,9.39A114.51,114.51,0,0,0,191.34,151a9.7,9.7,0,0,1-11.79-1.48l-10.14-10.15a11.06,11.06,0,0,0-15.66,0L139.06,154a11.07,11.07,0,0,0,0,15.66l10.15,10.14a9.71,9.71,0,0,1,1.49,11.8,114.48,114.48,0,0,0-12.3,29.62,9.7,9.7,0,0,1-9.39,7.28H114.69a11.09,11.09,0,0,0-11.08,11.07v20.78a11.09,11.09,0,0,0,11.08,11.07H129a9.7,9.7,0,0,1,9.39,7.28,114.48,114.48,0,0,0,12.3,29.62,9.71,9.71,0,0,1-1.49,11.8L139.06,330.3a11.07,11.07,0,0,0,0,15.66l14.69,14.69a11.08,11.08,0,0,0,15.67,0l10.14-10.15A9.74,9.74,0,0,1,191.34,349Zm0,0"/><circle class="cls-2" cx="249.71" cy="250" r="75.17"/><path class="cls-3" d="M252.61,292.57l-53.32-52.5a8.63,8.63,0,0,1,.68-13.21,11.48,11.48,0,0,1,14.87.76l46.22,45.52L392.81,167.68a11.49,11.49,0,0,1,14.87.77,8.63,8.63,0,0,1-.68,13.21L267.48,293.34A11.49,11.49,0,0,1,252.61,292.57Z"/></svg>