<svg id="Layer_1" data-name="Layer 1" xmlns="http://www.w3.org/2000/svg" viewBox="0 0 500 500"><defs><style>.cls-1{fill:#0678c1;}</style></defs><title>Job ICons</title><path class="cls-1" d="M250,495A245,245,0,0,1,76.76,76.76,245,245,0,1,1,423.24,423.24,243.37,243.37,0,0,1,250,495Zm0-480C120.42,15,15,120.42,15,250S120.42,485,250,485,485,379.58,485,250,379.58,15,250,15Z"/><path class="cls-1" d="M134.91,249.26a33.69,33.69,0,1,0-33.68-33.68A33.72,33.72,0,0,0,134.91,249.26Zm0-56.14a22.46,22.46,0,1,1-22.45,22.46A22.48,22.48,0,0,1,134.91,193.12Z"/><path class="cls-1" d="M365.09,249.26a33.69,33.69,0,1,0-33.69-33.68A33.72,33.72,0,0,0,365.09,249.26Zm0-56.14a22.46,22.46,0,1,1-22.46,22.46A22.48,22.48,0,0,1,365.09,193.12Z"/><path class="cls-1" d="M252.81,131.37a33.69,33.69,0,1,0-33.69-33.69A33.72,33.72,0,0,0,252.81,131.37Zm0-56.14a22.46,22.46,0,1,1-22.46,22.45A22.47,22.47,0,0,1,252.81,75.23Z"/><path class="cls-1" d="M168.59,321.16c5.77-6.87,11.23-13.36,11.23-21.37a44.91,44.91,0,0,0-89.82,0c0,8,5.15,14.5,10.93,21.37,4.41,5.23,9.42,11.17,12.23,18.41h0c2.8,4.52,1.48,10.65.73,16.59-1,7.83-1.87,15.94,3.31,21.82,3.57,4,9.39,6,17.64,6s14-2,17.59-6c5.18-5.88,4.17-14,3.18-21.82-.76-5.94-1.52-12.07.43-16.6C159.17,332.33,164.18,326.39,168.59,321.16Zm-22.84,14c-3.18,7.34-2.16,15.37-1.26,22.46.68,5.36,1.38,10.91-.44,13-1.26,1.43-4.51,2.21-9.14,2.21s-7.88-.78-9.13-2.21c-1.83-2.07-1-7.62-.29-13,.9-7.09,1.7-15.12-1.1-22.46h0c-4.21-8.76-9.51-15.37-14.41-21.19-4.61-5.49-8.68-10.22-8.68-14.14a33.66,33.66,0,1,1,67.32,0c0,3.92-4,8.65-8.62,14.14C155.1,319.75,149.53,326.36,145.75,335.12Z"/><path class="cls-1" d="M398.76,321.16c5.78-6.87,11.24-13.36,11.24-21.37a44.91,44.91,0,0,0-89.82,0c0,8,5.15,14.5,10.93,21.37,4.41,5.23,9.42,11.17,12.22,18.41h0c2.81,4.52,1.49,10.65.73,16.59-1,7.83-1.86,15.94,3.32,21.82,3.56,4,9.39,6,17.63,6s14-2,17.59-6c5.19-5.88,4.18-14,3.19-21.82-.76-5.94-1.53-12.07.43-16.6C389.35,332.33,394.35,326.39,398.76,321.16Zm-22.84,14c-3.17,7.34-2.15,15.37-1.25,22.46.68,5.36,1.38,10.91-.45,13-1.25,1.43-4.5,2.21-9.13,2.21s-7.88-.78-9.14-2.21c-1.82-2.07-1-7.62-.29-13,.9-7.09,1.71-15.12-1.1-22.46h0c-4.21-8.76-9.5-15.37-14.4-21.19-4.62-5.49-8.68-10.22-8.68-14.14a33.66,33.66,0,1,1,67.31,0c0,3.92-4,8.65-8.61,14.14C385.28,319.75,379.7,326.36,375.92,335.12Z"/><path class="cls-1" d="M231.05,221.68h0c2.81,4.52,1.49,10.66.73,16.59-1,7.84-1.86,15.94,3.32,21.82,3.56,4.05,9.38,6,17.63,6s14-2,17.59-6c5.18-5.88,4.18-14,3.19-21.82-.76-5.93-1.53-12.07.43-16.59,3.13-7.25,8.13-13.18,12.53-18.42,5.78-6.86,11.25-13.35,11.25-21.37a44.92,44.92,0,0,0-89.83,0c0,8,5.16,14.51,10.94,21.37C223.23,208.5,228.25,214.43,231.05,221.68Zm21.76-73.47a33.72,33.72,0,0,1,33.68,33.68c0,3.92-4,8.66-8.6,14.14-4.9,5.83-10.47,12.44-14.25,21.19-3.17,7.35-2.15,15.38-1.26,22.47.68,5.36,1.39,10.9-.44,13-1.25,1.42-4.5,2.21-9.13,2.21s-7.88-.79-9.14-2.21c-1.82-2.08-1-7.62-.29-13,.9-7.09,1.71-15.12-1.1-22.47h0c-4.21-8.76-9.5-15.37-14.4-21.2-4.62-5.48-8.68-10.22-8.68-14.14A33.65,33.65,0,0,1,252.81,148.21Z"/><path class="cls-1" d="M185.43,271.72a5.62,5.62,0,0,0,4.58-2.35l28.07-39.3a5.62,5.62,0,0,0-9.14-6.53l-28.07,39.3a5.61,5.61,0,0,0,1.31,7.83A5.52,5.52,0,0,0,185.43,271.72Z"/><path class="cls-1" d="M288.84,222.24a5.61,5.61,0,0,0-1.3,7.83l28.07,39.3a5.61,5.61,0,0,0,9.13-6.53l-28.07-39.3A5.61,5.61,0,0,0,288.84,222.24Z"/><rect class="cls-1" x="173.51" y="351.02" width="151.58" height="11.23"/><path class="cls-1" d="M134.91,249.26a33.69,33.69,0,1,0-33.68-33.68A33.72,33.72,0,0,0,134.91,249.26Zm0-56.14a22.46,22.46,0,1,1-22.45,22.46A22.48,22.48,0,0,1,134.91,193.12Z"/><path class="cls-1" d="M365.09,249.26a33.69,33.69,0,1,0-33.69-33.68A33.72,33.72,0,0,0,365.09,249.26Zm0-56.14a22.46,22.46,0,1,1-22.46,22.46A22.48,22.48,0,0,1,365.09,193.12Z"/><path class="cls-1" d="M252.81,131.37a33.69,33.69,0,1,0-33.69-33.69A33.72,33.72,0,0,0,252.81,131.37Zm0-56.14a22.46,22.46,0,1,1-22.46,22.45A22.47,22.47,0,0,1,252.81,75.23Z"/><path class="cls-1" d="M168.59,321.16c5.77-6.87,11.23-13.36,11.23-21.37a44.91,44.91,0,0,0-89.82,0c0,8,5.15,14.5,10.93,21.37,4.41,5.23,9.42,11.17,12.23,18.41h0c2.8,4.52,1.48,10.65.73,16.59-1,7.83-1.87,15.94,3.31,21.82,3.57,4,9.39,6,17.64,6s14-2,17.59-6c5.18-5.88,4.17-14,3.18-21.82-.76-5.94-1.52-12.07.43-16.6C159.17,332.33,164.18,326.39,168.59,321.16Zm-22.84,14c-3.18,7.34-2.16,15.37-1.26,22.46.68,5.36,1.38,10.91-.44,13-1.26,1.43-4.51,2.21-9.14,2.21s-7.88-.78-9.13-2.21c-1.83-2.07-1-7.62-.29-13,.9-7.09,1.7-15.12-1.1-22.46h0c-4.21-8.76-9.51-15.37-14.41-21.19-4.61-5.49-8.68-10.22-8.68-14.14a33.66,33.66,0,1,1,67.32,0c0,3.92-4,8.65-8.62,14.14C155.1,319.75,149.53,326.36,145.75,335.12Z"/><path class="cls-1" d="M398.76,321.16c5.78-6.87,11.24-13.36,11.24-21.37a44.91,44.91,0,0,0-89.82,0c0,8,5.15,14.5,10.93,21.37,4.41,5.23,9.42,11.17,12.22,18.41h0c2.81,4.52,1.49,10.65.73,16.59-1,7.83-1.86,15.94,3.32,21.82,3.56,4,9.39,6,17.63,6s14-2,17.59-6c5.19-5.88,4.18-14,3.19-21.82-.76-5.94-1.53-12.07.43-16.6C389.35,332.33,394.35,326.39,398.76,321.16Zm-22.84,14c-3.17,7.34-2.15,15.37-1.25,22.46.68,5.36,1.38,10.91-.45,13-1.25,1.43-4.5,2.21-9.13,2.21s-7.88-.78-9.14-2.21c-1.82-2.07-1-7.62-.29-13,.9-7.09,1.71-15.12-1.1-22.46h0c-4.21-8.76-9.5-15.37-14.4-21.19-4.62-5.49-8.68-10.22-8.68-14.14a33.66,33.66,0,1,1,67.31,0c0,3.92-4,8.65-8.61,14.14C385.28,319.75,379.7,326.36,375.92,335.12Z"/><path class="cls-1" d="M231.05,221.68h0c2.81,4.52,1.49,10.66.73,16.59-1,7.84-1.86,15.94,3.32,21.82,3.56,4.05,9.38,6,17.63,6s14-2,17.59-6c5.18-5.88,4.18-14,3.19-21.82-.76-5.93-1.53-12.07.43-16.59,3.13-7.25,8.13-13.18,12.53-18.42,5.78-6.86,11.25-13.35,11.25-21.37a44.92,44.92,0,0,0-89.83,0c0,8,5.16,14.51,10.94,21.37C223.23,208.5,228.25,214.43,231.05,221.68Zm21.76-73.47a33.72,33.72,0,0,1,33.68,33.68c0,3.92-4,8.66-8.6,14.14-4.9,5.83-10.47,12.44-14.25,21.19-3.17,7.35-2.15,15.38-1.26,22.47.68,5.36,1.39,10.9-.44,13-1.25,1.42-4.5,2.21-9.13,2.21s-7.88-.79-9.14-2.21c-1.82-2.08-1-7.62-.29-13,.9-7.09,1.71-15.12-1.1-22.47h0c-4.21-8.76-9.5-15.37-14.4-21.2-4.62-5.48-8.68-10.22-8.68-14.14A33.65,33.65,0,0,1,252.81,148.21Z"/><path class="cls-1" d="M185.43,271.72a5.62,5.62,0,0,0,4.58-2.35l28.07-39.3a5.62,5.62,0,0,0-9.14-6.53l-28.07,39.3a5.61,5.61,0,0,0,1.31,7.83A5.52,5.52,0,0,0,185.43,271.72Z"/><path class="cls-1" d="M288.84,222.24a5.61,5.61,0,0,0-1.3,7.83l28.07,39.3a5.61,5.61,0,0,0,9.13-6.53l-28.07-39.3A5.61,5.61,0,0,0,288.84,222.24Z"/><rect class="cls-1" x="173.51" y="351.02" width="151.58" height="11.23"/></svg>