<svg id="Layer_1" data-name="Layer 1" xmlns="http://www.w3.org/2000/svg" viewBox="0 0 500 500"><defs><style>.cls-1{fill:#0678c1;}</style></defs><title>Job ICons</title><path class="cls-1" d="M250,495A245,245,0,0,1,76.76,76.76,245,245,0,1,1,423.24,423.24,243.37,243.37,0,0,1,250,495Zm0-480C120.42,15,15,120.42,15,250S120.42,485,250,485,485,379.58,485,250,379.58,15,250,15Z"/><path class="cls-1" d="M326.18,330.63a6.29,6.29,0,1,0-6.29-6.29A6.29,6.29,0,0,0,326.18,330.63Z"/><path class="cls-1" d="M123.8,385H390.2a6.05,6.05,0,0,0,6.06-6.05c0-37.38-24.29-72.61-57.75-83.76l-28.78-9.59L299.4,264.93a66.27,66.27,0,0,0,18-35.08l1.29-7.72h11A18.19,18.19,0,0,0,347.82,204V165.82a90.82,90.82,0,1,0-181.64,0V204a18.19,18.19,0,0,0,12.11,17.13v7.09a18.19,18.19,0,0,0,18.16,18.17h5.32a65.6,65.6,0,0,0,10.16,15.72c.85,1,1.75,1.95,2.66,2.87L204.27,285.6l-28.78,9.59C142,306.34,117.74,341.57,117.74,379A6.05,6.05,0,0,0,123.8,385ZM257,367.49l-8.21-13.18a4.15,4.15,0,0,0-.3-.43,232.58,232.58,0,0,1-13.64-20.38l21.59-22.84,22.76,22.76a233.59,233.59,0,0,1-13.69,20.46C265.21,354.27,265.63,353.65,257,367.49Zm28.32-45.07-20.55-20.56,25.87-27.36L298.88,291A230.78,230.78,0,0,1,285.32,322.42ZM256.2,293.3l-11.82-11.83a60.38,60.38,0,0,0,22.52.51Zm-33.87-16.75,25.55,25.55-19.21,20.31A230.44,230.44,0,0,1,215.12,291Zm161.58,96.34h-116l7.45-12A241.48,241.48,0,0,0,292,335.42l.09-.16v0a241.85,241.85,0,0,0,17.05-37.06l25.49,8.49C361.55,315.63,381.51,342.9,383.91,372.89ZM184.34,210a6.07,6.07,0,0,1-6.05-6.06V171.88h12.29l.06,1.9v.06h0c.42,12.15,1.43,24.51,2.94,36.17Zm127.1-44.33v.06l-7.57-1.08a97.32,97.32,0,0,1-54.7-27.35,6.05,6.05,0,0,0-4.28-1.77,54.77,54.77,0,0,0-42.11,19.92,49.21,49.21,0,0,1,48.8-44.14h10.84a49.23,49.23,0,0,1,49.07,49.29C311.49,162.52,311.48,164.18,311.44,165.69ZM335.71,204a6.07,6.07,0,0,1-6,6.06h-9.24c1.53-11.92,2.56-24.61,3-37.1,0-.36,0-.7,0-1h12.28ZM257,87.11a78.82,78.82,0,0,1,78.48,72.66H323.59a61.32,61.32,0,0,0-61.17-60.55H251.58a61.32,61.32,0,0,0-61.17,60.55H178.52A78.67,78.67,0,0,1,257,87.11ZM190.4,228.18v-6.05h5l1.29,7.72c.25,1.47.55,2.94.9,4.39h-1.1A6.06,6.06,0,0,1,190.4,228.18Zm37.37,18.17a18.2,18.2,0,0,0,17.12,12.11H257a18.17,18.17,0,0,0,0-36.33H244.89a18.16,18.16,0,0,0-17.13,12.11H210.1c-3-10.08-6.5-39.75-7.27-58.76L211,164.61a42.65,42.65,0,0,1,31.52-16.89,109.52,109.52,0,0,0,59.66,28.94l8.91,1.27a369.21,369.21,0,0,1-3.56,37h0c-.55,3.75-1,6.17-2.11,12.91-3.2,19.23-17.55,36.62-36.5,41.36a49.14,49.14,0,0,1-23.8,0c-11.83-3-22.68-11.14-29.68-22.87Zm11.07-6.06a6.05,6.05,0,0,1,6-6H257a6.06,6.06,0,0,1,0,12.11H244.89A6.06,6.06,0,0,1,238.84,240.29Zm-59.52,66.38,25.49-8.49A242.73,242.73,0,0,0,222,335.56l0,.06h0a242.87,242.87,0,0,0,16.58,25.3l7.45,12h-116C132.49,342.9,152.45,315.63,179.32,306.67Z"/><path class="cls-1" d="M344.44,341.33a50,50,0,0,1,14.22,17.26A6.29,6.29,0,1,0,369.92,353a62.86,62.86,0,0,0-17.81-21.61,6.29,6.29,0,1,0-7.67,10Z"/></svg>