<svg id="Layer_1" data-name="Layer 1" xmlns="http://www.w3.org/2000/svg" xmlns:xlink="http://www.w3.org/1999/xlink" viewBox="0 0 500 500"><defs><style>.cls-1{fill:none;}.cls-2,.cls-4{fill:#eb621e;}.cls-2{stroke:#eb621e;stroke-miterlimit:10;stroke-width:3px;}.cls-3{clip-path:url(#clip-path);}</style><clipPath id="clip-path"><rect class="cls-1" x="85" y="98" width="302.21" height="304"/></clipPath></defs><title>Job ICons</title><path class="cls-2" d="M353.18,213.61H276.45a4.45,4.45,0,0,0,0,8.9h76.73a4.45,4.45,0,0,0,0-8.9Zm0,0"/><path class="cls-2" d="M353.18,240.45H276.45a4.46,4.46,0,0,0,0,8.91h76.73a4.46,4.46,0,0,0,0-8.91Zm0,0"/><path class="cls-2" d="M357.63,271.75a4.45,4.45,0,0,0-4.45-4.45H276.45a4.46,4.46,0,0,0,0,8.91h76.73a4.46,4.46,0,0,0,4.45-4.46Zm0,0"/><g class="cls-3"><path class="cls-2" d="M276.45,294.14a4.46,4.46,0,0,0,0,8.91h38.37a4.46,4.46,0,0,0,0-8.91Zm0,0"/><path class="cls-2" d="M380.06,150.36l-45.88-45.91A22,22,0,0,0,318.61,98h-151a22,22,0,0,0-22,22v45.59a4.45,4.45,0,1,0,8.9,0V120a13.13,13.13,0,0,1,13.11-13.12h151a13.33,13.33,0,0,1,2.83.3v40.55a15.36,15.36,0,0,0,15.34,15.35H377.3a13.48,13.48,0,0,1,.31,2.83V380a13.13,13.13,0,0,1-13.12,13.12H304.71a20.06,20.06,0,0,0-2.49-25.3L261.77,327.3a10.38,10.38,0,0,0-10.92-2.39l-8.71-8.72A86.33,86.33,0,1,0,222.33,336l8.72,8.72a10.41,10.41,0,0,0,2.39,10.93l37.43,37.44H167.64A13.13,13.13,0,0,1,154.53,380V365.7a4.45,4.45,0,1,0-8.9,0V380a22,22,0,0,0,22,22H364.49a22,22,0,0,0,22-22v-214a22.07,22.07,0,0,0-6.45-15.58ZM117.24,320.6a77.46,77.46,0,1,1,115.53-6.77A79,79,0,0,1,220,326.63a77.43,77.43,0,0,1-102.75-6Zm112.1,9.79a86,86,0,0,0,7.2-7.21l7.33,7.33-7.22,7.23-7.33-7.34Zm50.85,59.44-40.45-40.48a1.48,1.48,0,0,1,0-2.1l.06-.06h0l13.57-13.58a1.48,1.48,0,0,1,2.1,0l40.46,40.48a11.13,11.13,0,0,1-15.74,15.75Zm50.15-242.07V113.2l41,41H336.78a6.45,6.45,0,0,1-6.44-6.45Zm0,0"/></g><path class="cls-2" d="M271.33,126.89H183.05a9.59,9.59,0,0,0-9.57,9.58v17.07a9.58,9.58,0,0,0,9.57,9.57h88.28a9.58,9.58,0,0,0,9.57-9.57V136.47a9.59,9.59,0,0,0-9.57-9.58Zm.67,26.65a.67.67,0,0,1-.67.67H183.05a.67.67,0,0,1-.67-.67V136.47a.67.67,0,0,1,.67-.67h88.28a.67.67,0,0,1,.67.67v17.07Zm0,0"/><path class="cls-4" d="M220.49,314.34a68.61,68.61,0,1,0-116.29-59,4.45,4.45,0,1,0,8.79,1.34,59.7,59.7,0,1,1,103.92,48.42,19.24,19.24,0,0,0-9.63-9.13c-5.27-2.33-14.36-3.8-19.95-4.54l0-5.62a26.18,26.18,0,0,0,10.34-16.94,7.87,7.87,0,0,0,2.57-1.73,7.79,7.79,0,0,0,2.28-5.61c0-5.9,0-15.68,0-21.38a10.94,10.94,0,0,0-9.06-10.76,10.93,10.93,0,0,0-10.7-8.79H161.23a20.1,20.1,0,0,0-20.08,20.09v20.93a7.86,7.86,0,0,0,4.79,7.23,26.2,26.2,0,0,0,9.87,16.58l0,6.13c-5.58.79-14.65,2.34-19.91,4.71a18.76,18.76,0,0,0-9,8.61,59.21,59.21,0,0,1-13.7-28.82,4.45,4.45,0,1,0-8.76,1.53,68.58,68.58,0,0,0,116.06,36.71Zm-59.26-84.8h21.48a2,2,0,0,1,2,2,6.64,6.64,0,0,0,6.62,6.64h.22a2,2,0,0,1,2,2v2.38l-5.38-.5A24.78,24.78,0,0,0,173,245.61a15.78,15.78,0,0,1-8.22,2.32H150.05v-7.19a11.19,11.19,0,0,1,11.18-11.2ZM150,260.71v-3.88H164.8a24.69,24.69,0,0,0,12.87-3.63,15.78,15.78,0,0,1,9.69-2.25l6.21.58c0,2.74,0,6.36,0,9.16A5.53,5.53,0,0,0,189,265.8a17.28,17.28,0,0,1-34.5,0,5.56,5.56,0,0,0-4.5-5.11ZM171.81,291a26.35,26.35,0,0,0,6.62-.86v2.48a7.65,7.65,0,0,0,.73,3.24,13.54,13.54,0,0,1-7.58,2.33h0a13.5,13.5,0,0,1-7.52-2.27,7.83,7.83,0,0,0,.71-3.24V290a26.26,26.26,0,0,0,7.08,1Zm-38,20.8a10.09,10.09,0,0,1,5.72-7.32c3-1.37,8.87-2.74,16.21-3.82A22.4,22.4,0,0,0,171.55,307h.07a22.37,22.37,0,0,0,15.84-6.56c7.36,1,13.2,2.34,16.24,3.68a10.15,10.15,0,0,1,6.14,7.83,59.76,59.76,0,0,1-76-.24Zm0,0"/><path class="cls-4" d="M250,495A240,240,0,0,1,80.29,85.29,240,240,0,0,1,419.71,424.71,238.43,238.43,0,0,1,250,495Zm0-470.2C123.06,24.8,19.8,128.07,19.8,255S123.06,485.2,250,485.2,480.2,381.93,480.2,255,376.93,24.8,250,24.8Z"/></svg>