<svg id="Layer_1" data-name="Layer 1" xmlns="http://www.w3.org/2000/svg" xmlns:xlink="http://www.w3.org/1999/xlink" viewBox="0 0 500 500"><defs><style>.cls-1{fill:none;}.cls-2,.cls-4,.cls-5{fill:#eb621e;}.cls-3{clip-path:url(#clip-path);}.cls-4,.cls-5{stroke:#eb621e;stroke-miterlimit:10;}.cls-4{stroke-width:4px;}.cls-5{stroke-width:3px;}</style><clipPath id="clip-path"><rect class="cls-1" x="82.2" y="98" width="345.6" height="306"/></clipPath></defs><title>Job ICons</title><path class="cls-2" d="M250,495A240,240,0,0,1,80.29,85.29,240,240,0,0,1,419.71,424.71,238.43,238.43,0,0,1,250,495Zm0-470.2C123.06,24.8,19.8,128.07,19.8,255S123.06,485.2,250,485.2,480.2,381.93,480.2,255,376.93,24.8,250,24.8Z"/><g class="cls-3"><path class="cls-4" d="M403.21,206.3c-.61-.62-1.24-1.22-1.87-1.82V185A35.12,35.12,0,0,0,366.26,150H304.71V132.32a34.17,34.17,0,0,0-34.13-34.14H213a34.18,34.18,0,0,0-34.14,34.14V150H117.28A35.12,35.12,0,0,0,82.2,185V341.19a35.13,35.13,0,0,0,35.08,35.09h73.25a5.07,5.07,0,0,0,0-10.13H117.28a25,25,0,0,1-25-25V239.06a59.47,59.47,0,0,0,44.89,26.15v18.43a19.1,19.1,0,0,0,38.19,0V265.37H260v.24a83.24,83.24,0,0,0,14.77,47.57L264,323.93a11.13,11.13,0,0,0-10.9,2.82L211.83,368a21,21,0,0,0,29.64,29.64l41.29-41.29a11.14,11.14,0,0,0,2.82-10.9l10.76-10.76a84.1,84.1,0,0,0,94.87.16v6.3a25,25,0,0,1-24.95,25h-80a5.07,5.07,0,0,0,0,10.13h80a35.13,35.13,0,0,0,35.08-35.09V326.74c.63-.59,1.25-1.19,1.87-1.8a83.85,83.85,0,0,0,0-118.64ZM189,132.32a24,24,0,0,1,24-24h57.62a24,24,0,0,1,24,24V150h-10.8V132.32a13.23,13.23,0,0,0-13.21-13.22H213a13.23,13.23,0,0,0-13.22,13.22V150H189Zm20.92,16V132A3,3,0,0,1,213,129.1h57.91A3,3,0,0,1,274,132v16.35ZM165.28,268.08H147.35V251a9,9,0,1,1,17.93,0Zm-9,24.53a9,9,0,0,1-9-9V278.2h17.93v5.44a9,9,0,0,1-9,9Zm19.09-37.36V251a19.1,19.1,0,0,0-38.19,0v4a49.39,49.39,0,0,1-44.89-49.13V185a25,25,0,0,1,25-25h249a25,25,0,0,1,24.95,25v11.29a83.93,83.93,0,0,0-130.58,58.93Zm58.9,135.26A10.83,10.83,0,0,1,219,375.19l28.6-28.59,15.32,15.32Zm41.28-41.28-5.52,5.53-15.32-15.32,5.52-5.53a1,1,0,0,1,.71-.29,1,1,0,0,1,.7.29h0l13.91,13.91a1,1,0,0,1,0,1.4Zm3.83-11.9-7.24-7.24,8.88-8.89c1.13,1.27,2.3,2.52,3.51,3.73s2.46,2.38,3.74,3.51Zm12.31-19.55a73.77,73.77,0,1,1,104.32,0,73.31,73.31,0,0,1-104.32,0Zm0,0"/></g><path class="cls-2" d="M399.43,272.57a5,5,0,0,0-6,3.87,50.7,50.7,0,1,1,0-21.67,5.06,5.06,0,1,0,9.89-2.16,60.78,60.78,0,1,0,0,26,5.06,5.06,0,0,0-3.87-6Zm0,0"/><path class="cls-5" d="M399.43,272.57a5,5,0,0,0-6,3.87,50.7,50.7,0,1,1,0-21.67,5.06,5.06,0,1,0,9.89-2.16,60.78,60.78,0,1,0,0,26,5.06,5.06,0,0,0-3.87-6Zm0,0"/><path class="cls-2" d="M400.5,321a7.11,7.11,0,0,0-10.05-.75,71.4,71.4,0,1,1,18.35-24.37,7.13,7.13,0,0,0,13,5.95,85.58,85.58,0,1,0-22,29.22A7.13,7.13,0,0,0,400.5,321Z"/></svg>